{
  "accessors": [
    {
      "bufferView": 0,
      "byteOffset": 0,
      "componentType": 5123,
      "count": 3285,
      "max": [
        2123.0
      ],
      "min": [
        0.0
      ],
      "name": "buffer-0-group-0-mesh-0-indices",
      "type": "SCALAR"
    },
    {
      "bufferView": 1,
      "byteOffset": 0,
      "componentType": 5126,
      "count": 2124,
      "max": [
        3.6178390979766846,
        3.809148073196411,
        3.577085018157959
      ],
      "min": [
        -3.6178390979766846,
        0.0,
        -3.577085018157959
      ],
      "name": "buffer-0-group-0-mesh-0-position",
      "type": "VEC3"
    },
    {
      "bufferView": 1,
      "byteOffset": 25488,
      "componentType": 5126,
      "count": 2124,
      "max": [
        0.9997606873512268,
        1.0,
        0.9999135136604309
      ],
      "min": [
        -0.9994297623634338,
        -1.0,
        -0.9996362328529358
      ],
      "name": "buffer-0-group-0-mesh-0-normal",
      "type": "VEC3"
    },
    {
      "bufferView": 2,
      "byteOffset": 0,
      "componentType": 5126,
      "count": 2124,
      "max": [
        0.996321976184845,
        -0.006961999926716089
      ],
      "min": [
        0.005960000213235617,
        -0.9953169822692871
      ],
      "name": "buffer-0-group-0-mesh-0-texcoord",
      "type": "VEC2"
    }
  ],
  "asset": {
    "generator": "Obj2GltfConverter",
    "version": "2.0"
  },
  "bufferViews": [
    {
      "buffer": 0,
      "byteLength": 6570,
      "byteOffset": 0,
      "name": "buffer-0-bufferview-ushort",
      "target": 34963
    },
    {
      "buffer": 0,
      "byteLength": 50976,
      "byteOffset": 6576,
      "byteStride": 12,
      "name": "buffer-0-bufferview-vec3",
      "target": 34962
    },
    {
      "buffer": 0,
      "byteLength": 16992,
      "byteOffset": 57552,
      "byteStride": 8,
      "name": "buffer-0-bufferview-vec2",
      "target": 34962
    }
  ],
  "buffers": [
    {
      "byteLength": 74544,
      "name": "buffer-0",
      "uri": "Hamburger.bin"
    }
  ],
  "images": [
    {
      "mimeType": "image/png",
      "name": "Hamburguer_Mat-diffuse-image",
      "uri": "Hamburger_BaseColor.png"
    }
  ],
  "materials": [
    {
      "alphaMode": "OPAQUE",
      "doubleSided": true,
      "name": "Hamburguer_Mat",
      "pbrMetallicRoughness": {
        "baseColorFactor": [
          1.0,
          1.0,
          1.0,
          1.0
        ],
        "baseColorTexture": {
          "index": 0,
          "texCoord": 0
        },
        "metallicFactor": 0.0,
        "roughnessFactor": 0.9699476628648295
      }
    }
  ],
  "meshes": [
    {
      "name": "buffer-0-mesh-0",
      "primitives": [
        {
          "attributes": {
            "POSITION": 1,
            "NORMAL": 2,
            "TEXCOORD_0": 3
          },
          "indices": 0,
          "material": 0,
          "mode": 4
        }
      ]
    }
  ],
  "nodes": [
    {
      "mesh": 0,
      "name": "node-0"
    }
  ],
  "samplers": [
    {
      "name": "Hamburguer_Mat-diffuse-sampler",
      "wrapS": 10497,
      "wrapT": 10497
    }
  ],
  "scenes": [
    {
      "name": "scene-0",
      "nodes": [
        0
      ]
    }
  ],
  "textures": [
    {
      "name": "Hamburguer_Mat-diffuse-texture",
      "sampler": 0,
      "source": 0
    }
  ]
}